<svg width="24" height="24" viewBox="0 0 24 24" fill="none" xmlns="http://www.w3.org/2000/svg">
<path d="M2 9L9 2H15L22 9V15L15 22H9L2 15V9Z" stroke="#9FE5FB"/>
<path d="M14.8041 5.345C15.2141 5.615 15.5341 5.97 15.7641 6.41C15.9941 6.84 16.1091 7.275 16.1091 7.715C16.1091 8.415 15.8791 9.255 15.4191 10.235L12.0741 17.48L7.67906 7.025L9.04406 6.32L12.5091 14.885L14.3091 11.12C14.5191 10.59 14.6741 10.18 14.7741 9.89C14.8741 9.6 14.9241 9.315 14.9241 9.035C14.9241 8.135 14.4741 7.345 13.5741 6.665L14.8041 5.345Z" fill="#9FE5FB"/>
</svg>
