<svg width="24" height="24" viewBox="0 0 24 24" fill="none" xmlns="http://www.w3.org/2000/svg">
<path d="M2 9L9 2H15L22 9V15L15 22H9L2 15V9Z" stroke="#9FE5FB"/>
<path d="M14.8107 17.315L11.7807 12.74C11.3907 13.71 11.0257 14.51 10.6857 15.14C10.3557 15.76 9.95568 16.28 9.48568 16.7C9.02568 17.11 8.48568 17.315 7.86568 17.315L8.30068 15.5C8.32068 15.51 8.34568 15.52 8.37568 15.53C8.40568 15.53 8.42568 15.53 8.43568 15.53C9.06568 15.53 9.60068 15.245 10.0407 14.675C10.4907 14.095 10.9507 13.265 11.4207 12.185L7.92568 6.875L9.27568 6.35L12.0657 10.595C12.4357 9.695 12.7857 8.945 13.1157 8.345C13.4557 7.745 13.8507 7.255 14.3007 6.875C14.7607 6.485 15.2907 6.29 15.8907 6.29L15.4557 8.105L15.3057 8.09C14.6957 8.09 14.1707 8.355 13.7307 8.885C13.3007 9.415 12.8707 10.175 12.4407 11.165L16.1607 16.805L14.8107 17.315Z" fill="#9FE5FB"/>
</svg>
